<?xml version="1.0" encoding="UTF-8" standalone="no"?>
<svg
   width="834.59955"
   height="198.90002"
   viewBox="0 0 834.59955 198.90002"
   version="1.1"
   id="svg1"
   sodipodi:docname="text1.svg"
   inkscape:version="1.4.4 (dcaf3e7d, 2026-05-05)"
   xmlns:inkscape="http://www.inkscape.org/namespaces/inkscape"
   xmlns:sodipodi="http://sodipodi.sourceforge.net/DTD/sodipodi-0.dtd"
   xmlns="http://www.w3.org/2000/svg"
   xmlns:svg="http://www.w3.org/2000/svg">
  <defs
     id="defs1" />
  <sodipodi:namedview
     id="namedview1"
     pagecolor="#ffffff"
     bordercolor="#000000"
     borderopacity="0.25"
     inkscape:showpageshadow="2"
     inkscape:pageopacity="0.0"
     inkscape:pagecheckerboard="0"
     inkscape:deskcolor="#d1d1d1"
     inkscape:zoom="1.0543979"
     inkscape:cx="417.77398"
     inkscape:cy="99.5829"
     inkscape:window-width="1690"
     inkscape:window-height="955"
     inkscape:window-x="0"
     inkscape:window-y="30"
     inkscape:window-maximized="0"
     inkscape:current-layer="svg1">
    <inkscape:page
       x="0"
       y="0"
       width="834.59955"
       height="198.90002"
       id="page2"
       margin="0"
       bleed="0" />
  </sodipodi:namedview>
  <path
     style="font-weight:600;font-size:150px;font-family:'Lucida Calligraphy', 'Apple Chancery', 'Brush Script MT', cursive;-inkscape-font-specification:'Lucida Calligraphy, Apple Chancery, Brush Script MT, cursive Semi-Bold';dominant-baseline:middle;text-anchor:middle;fill:#111111"
     d="m 88.949892,119.84993 c -14.1,5.25 -25.8,7.95 -34.95,7.95 -18.6,0 -28.2,-7.8 -28.2,-26.25 0,-10.200002 1.35,-19.950002 4.2,-29.250002 2.85,-9.45 6.6,-16.8 11.1,-21.75 6.15,-6.9 13.8,-10.35 23.1,-10.35 10.35,0 19.8,3.75 28.05,11.1 l 15.299998,-18.3 c -10.199998,-3.3 -20.249998,-4.95 -30.149998,-4.95 -22.05,0 -40.8,8.55 -56.4,25.5 -13.9499996,15.6 -20.99999957446,32.85 -20.99999957446,51.900002 0,25.05 12.44999957446,36.6 39.89999957446,36.6 13.95,0 29.4,-3.15 46.2,-9.45 z m 41.100028,-3.15 c 5.55,-10.05 11.1,-19.350002 16.8,-27.600002 8.4,-12.15 12,-15.9 16.05,-15.9 2.1,0 3.15,1.5 3.15,4.65 0,2.25 -0.3,4.65 -0.9,7.5 l -6.3,31.950002 c -1.05,5.55 -1.65,9.6 -1.65,12.15 0,7.65 3.75,11.55 11.4,11.55 10.8,0 21.75,-6.6 32.85,-19.95 l 1.8,-8.55 c -3.9,4.8 -7.8,8.7 -11.7,11.85 -7.95,6.3 -12,6.15 -12,0.75 0,-1.65 0.6,-5.25 1.65,-11.1 l 6.45,-33.150002 c 0.9,-4.35 1.35,-8.1 1.35,-11.25 0,-7.95 -4.35,-12.6 -12,-12.6 -7.35,0 -14.25,3.15 -21,9.6 -6.45,6.15 -13.95,16.8 -22.35,31.95 l 9.6,-48.3 c 3,-15.15 6.15,-25.2 9.3,-30.45 3.15,-5.1 8.1,-7.65 14.55,-7.65 5.4,0 11.4,1.65 18.15,5.1 l 15.3,-15.5999997 c -6.45,-1.05000002 -12.15,-1.650000016309 -17.25,-1.650000016309 -14.85,0 -27.9,5.100000016309 -39.45,15.299999716309 -13.2,11.55 -20.7,26.7 -25.65,51.75 l -10.05,50.400002 -5.4,22.65 22.8,-0.9 z M 246.59995,80.699928 c 1.05,-4.95 1.5,-9.15 1.5,-12.3 0,-7.65 -3.75,-11.4 -11.4,-11.4 -10.65,0 -21.6,6.6 -32.85,19.95 l -1.65,8.55 c 3.9,-4.8 7.8,-8.7 11.55,-11.85 8.25,-6.45 12.15,-6.15 12.15,-0.75 0,1.65 -0.6,5.25 -1.65,11.1 l -6.6,33.150002 c -0.9,4.35 -1.35,8.1 -1.35,11.25 0,7.95 4.5,12.6 12.15,12.6 7.35,0 14.4,-3.15 20.85,-9.6 6.75,-6.45 14.25,-17.1 22.5,-31.950002 l -3.6,17.850002 c -1.05,4.95 -1.5,9.15 -1.5,12.3 0,7.65 3.75,11.4 11.4,11.4 10.95,0 21.9,-6.6 32.7,-19.95 l 1.8,-8.55 c -7.95,9.6 -16.5,16.65 -20.7,16.65 -1.95,0 -3,-1.35 -3,-4.05 0,-1.65 0.6,-5.25 1.65,-11.1 l 6.6,-33.600002 5.55,-22.5 -22.8,0.9 -4.5,22.5 c -5.55,10.05 -11.25,19.350002 -16.8,27.600002 -4.2,6 -7.5,10.2 -9.75,12.45 -4.65,4.65 -9.45,4.95 -9.45,-1.2 0,-2.1 0.3,-4.65 0.9,-7.5 z m 99.44991,58.500002 4.5,-22.5 c 5.55,-10.05 11.1,-19.350002 16.8,-27.600002 4.35,-6.15 7.65,-10.35 9.9,-12.6 4.5,-4.5 9.3,-4.8 9.3,1.35 0,1.8 -0.3,4.35 -0.75,7.5 l -6.45,31.950002 c -1.05,4.95 -1.5,9 -1.5,12.15 0,7.65 3.75,11.55 11.4,11.55 10.95,0 21.9,-6.6 32.7,-19.95 l 1.8,-8.55 c -4.05,4.95 -7.95,8.85 -11.7,11.85 -7.95,6.45 -12,6.15 -12,0.75 0,-1.65 0.6,-5.25 1.65,-11.1 l 6.6,-33.150002 c 0.9,-4.35 1.35,-8.1 1.35,-11.25 0,-7.95 -4.5,-12.6 -12.15,-12.6 -7.35,0 -14.25,3.15 -21,9.6 -6.45,6.15 -13.95,16.8 -22.35,31.95 l 3.6,-17.85 c 1.05,-4.95 1.5,-9.15 1.5,-12.3 0,-7.65 -3.75,-11.4 -11.25,-11.4 -10.8,0 -21.75,6.6 -32.85,19.95 l -1.8,8.55 c 3.9,-4.8 7.8,-8.7 11.55,-11.85 8.25,-6.45 12.15,-6.15 12.15,-0.75 0,1.65 -0.6,5.25 -1.65,11.1 l -6.6,33.450002 -5.4,22.65 z M 518.69973,58.799928 c -8.55,-0.9 -17.55,-1.35 -26.85,-1.35 -15.45,0 -29.25,6 -41.7,17.85 -13.65,13.2 -20.4,27.750002 -20.4,43.500002 0,11.55 3.75,17.4 12.3,19.8 -8.25,3.9 -13.95,6.9 -16.95,9.15 -9.45,6.75 -14.1,15 -14.1,25.05 0,7.65 2.85,13.95 8.55,18.75 5.85,4.95 13.2,7.35 22.2,7.35 12.45,0 26.55,-5.7 36.75,-14.85 14.4,-13.05 22.95,-32.7 27.9,-63.45 l 3.6,-22.200002 3.45,-18 z m -86.4,106.650002 c 0,-12.15 4.95,-19.35 16.35,-26.4 13.35,-2.25 25.8,-14.55 39.45,-39.600002 l -6.45,41.550002 c -2.85,17.85 -6.15,30 -10.05,36.45 -3.75,6.15 -9.75,9.3 -18,9.3 -12.75,0 -21.3,-8.25 -21.3,-21.3 z m 25.65,-42.45 c -3.45,0 -5.1,-3 -5.1,-8.85 0,-6.15 1.05,-12.75 3.15,-20.100002 2.1,-7.65 4.5,-13.5 7.35,-17.55 3.6,-5.55 8.4,-8.25 14.4,-8.25 5.1,0 10.35,1.5 15.6,4.65 l -1.8,8.85 c -4.2,8.25 -9.6,16.95 -16.2,25.800002 -7.65,10.35 -13.35,15.45 -17.4,15.45 z M 596.69975,72.449928 c -0.3,-1.95 -0.45,-3.45 -0.45,-4.65 0,-15.75 7.8,-22.35 27.15,-22.35 h 11.7 l -5.4,27.3 c -2.55,12.45 -4.5,22.95 -6.15,31.200002 -1.95,9.6 -4.05,15.15 -6.3,18.75 -1.05,1.8 -2.7,3.15 -4.65,3.9 -4.05,1.8 -6.6,1.95 -13.35,1.95 -0.6,0 -2.25,-0.15 -3,-0.15 l -9.75,10.8 56.7,1.8 9.75,-10.8 -29.4,-0.6 c 13.8,-8.4 21.15,-17.25 23.7,-31.800002 l 10.35,-52.35 h 3.75 c 18.15,0 33.3,-5.7 45.75,-17.1 9.15,-8.55 12.9,-16.5 13.65,-28.349999716309 L 699.59975,9.5999283 c 0.45,1.6499997 0.6,3.1499997 0.6,4.4999997 0,10.8 -9.45,16.65 -27,16.65 h -34.05 c -22.65,0 -40.05,6.9 -52.2,20.85 -7.8,8.85 -11.7,19.05 -11.7,30.6 z m 85.95,42.900002 c 0,16.05 9.3,25.65 26.55,25.65 15.15,0 28.95,-6.15 41.25,-18.6 11.85,-11.55 17.7,-24.900002 17.7,-39.900002 0,-15.75 -9.6,-25.5 -26.85,-25.5 -10.35,0 -20.55,3.3 -30.6,9.75 -10.2,6.6 -17.85,15.45 -22.95,26.4 -3.45,7.200002 -5.1,14.550002 -5.1,22.200002 z m 24.45,-6 c 0,-11.850002 2.1,-21.600002 6.3,-29.250002 4.2,-7.5 9.75,-11.25 16.5,-11.25 9.15,0 13.65,6.6 13.65,19.65 0,11.850002 -2.1,21.600002 -6.3,29.250002 -4.2,7.65 -9.75,11.55 -16.65,11.55 -9,0 -13.5,-6.6 -13.5,-19.95 z m 120.59995,-77.100002 6.9,-17.7 -27.15,19.35 -4.8,11.4 z m -9.3,48.45 c 1.05,-4.95 1.5,-9.15 1.5,-12.3 0,-7.65 -3.75,-11.4 -11.4,-11.4 -10.8,0 -21.75,6.6 -32.85,19.95 l -1.65,8.55 c 3.9,-4.8 7.8,-8.7 11.55,-11.85 4.05,-3.15 7.05,-4.8 9,-4.8 2.1,0 3.15,1.35 3.15,4.05 0,1.65 -0.6,5.25 -1.65,11.1 l -6.6,33.150002 c -1.05,5.55 -1.65,9.6 -1.65,12.15 0,7.65 3.75,11.55 11.4,11.55 10.95,0 21.9,-6.75 32.85,-20.1 l 1.8,-8.55 c -3.75,4.95 -7.65,8.85 -11.7,12 -4.05,3.15 -7.05,4.8 -9,4.8 -2.1,0 -3.15,-1.35 -3.15,-4.05 0,-1.8 0.6,-5.55 1.8,-11.1 z"
     id="text1"
     aria-label="Chung Toi" />
</svg>
